# xmcd
#
# Track frame offsets: 
#        150
#        17015
#        33760
#        59740
#
# Disc length: 1201 seconds
#
# Revision: 2
# Processed by: cddbd v1.5.2PL0 Copyright (c) Steve Scherf et al.
# Submitted via: ExactAudioCopy v0.99pb5
#
DISCID=2b04af04
DTITLE=Kriminal - Loud 'N' Proud
DYEAR=1999
DGENRE=Electronic
TTITLE0=Loud 'N' Proud (Sniper Alternative Mix Radio Edit)
TTITLE1=Loud 'N' Proud (Kriminal Original Radio Edit)
TTITLE2=Loud 'N' Proud (Hybrid Dub Mix)
TTITLE3=Loud 'N' Proud (Olav Basoski 'Samplitude'Mix)
EXTD=
EXTT0=
EXTT1=
EXTT2=
EXTT3=
PLAYORDER=
